<?xml version="1.0" standalone="no"?>
<!DOCTYPE svg PUBLIC "-//W3C//DTD SVG 20010904//EN"
 "http://www.w3.org/TR/2001/REC-SVG-20010904/DTD/svg10.dtd">
<svg version="1.0" xmlns="http://www.w3.org/2000/svg"
 width="3752.000000pt" height="2252.000000pt" viewBox="0 0 3752.000000 2252.000000"
 preserveAspectRatio="xMidYMid meet">
<metadata>
Created by potrace 1.16, written by Peter Selinger 2001-2019
</metadata>
<g transform="translate(0.000000,2252.000000) scale(0.100000,-0.100000)"
fill="#000000" stroke="none">
<path d="M2912 15230 c-23 -24 -24 -28 -21 -215 1 -112 7 -197 13 -207 10 -17
181 -18 3356 -18 2589 0 3349 3 3358 12 19 19 17 408 -2 434 -14 19 -60 19
-3348 19 l-3333 0 -23 -25z m6698 -210 l0 -200 -3205 -2 c-1763 -2 -3265 -3
-3337 -3 l-133 0 -3 203 -2 202 3340 0 3340 0 0 -200z"/>
<path d="M26913 14975 c-15 -17 -17 -55 -3 -55 6 0 10 -6 10 -14 0 -7 11 -34
25 -60 14 -26 25 -54 25 -62 0 -7 4 -14 8 -14 5 0 14 -16 22 -35 8 -19 17 -35
22 -35 4 0 8 -5 8 -12 0 -16 92 -202 102 -206 5 -2 8 -9 8 -15 0 -15 93 -201
102 -205 5 -2 8 -9 8 -15 0 -15 93 -201 102 -205 5 -2 8 -9 8 -15 0 -15 93
-201 102 -205 5 -2 8 -11 8 -20 0 -9 7 -26 15 -36 8 -11 15 -28 15 -38 0 -10
3 -18 8 -18 4 0 18 -25 32 -55 14 -30 28 -55 33 -55 4 0 7 -5 7 -12 0 -16 92
-202 102 -206 5 -2 8 -9 8 -15 0 -15 93 -201 102 -205 5 -2 8 -9 8 -15 0 -15
93 -201 102 -205 5 -2 8 -9 8 -15 0 -15 93 -201 102 -205 5 -2 8 -9 8 -15 0
-15 93 -201 102 -205 5 -2 8 -9 8 -15 0 -15 93 -201 102 -205 5 -2 8 -9 8 -15
0 -15 93 -201 102 -205 5 -2 8 -9 8 -15 0 -15 93 -201 102 -205 5 -2 8 -9 8
-15 0 -15 93 -201 102 -205 5 -2 8 -10 8 -17 0 -17 72 -159 83 -163 4 -2 7
-12 7 -23 0 -10 5 -19 10 -19 6 0 10 -6 10 -13 0 -10 58 -130 97 -202 6 -11
33 -65 59 -120 27 -55 52 -101 56 -103 5 -2 8 -10 8 -17 0 -16 92 -199 103
-203 4 -2 7 -10 7 -17 0 -16 92 -199 103 -203 4 -2 7 -10 7 -17 0 -22 72 -157
98 -183 23 -24 76 -28 78 -7 1 18 39 95 46 95 5 0 8 9 8 20 0 11 7 28 15 38 9
10 30 49 48 87 17 39 35 72 39 73 5 2 8 12 8 22 0 10 3 20 8 22 10 4 82 150
82 166 0 6 5 12 10 12 6 0 10 9 10 19 0 11 4 21 8 23 9 4 82 153 82 168 0 5 5
10 10 10 6 0 10 9 10 19 0 11 3 21 8 23 9 4 82 151 82 166 0 7 5 12 10 12 6 0
10 9 10 19 0 11 3 21 8 23 10 4 82 150 82 166 0 6 5 12 10 12 6 0 10 9 10 19
0 11 3 21 8 23 9 3 82 154 82 169 0 5 5 9 10 9 6 0 10 7 10 16 0 9 8 28 18 42
10 15 31 56 47 92 17 36 33 67 38 68 4 2 7 12 7 22 0 10 3 20 8 22 9 4 82 151
82 166 0 7 5 12 10 12 6 0 10 9 10 19 0 11 4 21 8 23 9 4 82 153 82 168 0 5 5
10 10 10 6 0 10 9 10 19 0 11 3 21 8 23 9 3 82 154 82 169 0 5 5 9 10 9 6 0
10 9 10 19 0 11 3 21 8 23 9 3 82 154 82 169 0 5 5 9 10 9 6 0 10 9 10 20 0
11 3 20 8 20 4 0 13 15 21 33 25 62 66 142 74 145 4 2 7 12 7 22 0 10 3 20 8
22 9 3 82 154 82 169 0 5 5 9 10 9 6 0 10 9 10 19 0 11 4 21 8 23 9 3 62 113
62 128 0 6 5 10 10 10 6 0 10 9 10 20 0 11 5 20 10 20 6 0 10 9 10 19 0 11 4
21 8 23 7 3 43 74 73 146 8 17 17 32 21 32 5 0 8 9 8 20 0 11 3 20 8 20 4 0
13 15 21 33 25 62 66 142 74 145 4 2 7 8 7 14 0 6 74 159 164 342 90 182 170
346 177 364 8 17 17 32 21 32 5 0 8 6 8 13 0 6 25 61 55 121 30 61 55 117 55
126 0 9 -9 25 -21 36 -16 15 -24 16 -39 6 -15 -9 -134 -12 -461 -12 -362 0
-443 -2 -454 -14 -21 -20 -65 -103 -65 -120 0 -9 -4 -16 -10 -16 -5 0 -10 -9
-10 -20 0 -11 -4 -20 -10 -20 -5 0 -10 -9 -10 -19 0 -11 -4 -23 -10 -26 -5 -3
-10 -15 -10 -26 0 -10 -3 -19 -8 -19 -4 0 -13 -15 -21 -32 -32 -76 -46 -108
-86 -193 -24 -49 -49 -105 -56 -122 -8 -18 -17 -33 -21 -33 -5 0 -8 -9 -8 -20
0 -11 -4 -20 -10 -20 -5 0 -10 -6 -10 -13 0 -8 -11 -36 -25 -63 -14 -27 -25
-57 -25 -66 0 -10 -4 -18 -10 -18 -5 0 -10 -9 -10 -20 0 -11 -4 -20 -10 -20
-5 0 -10 -9 -10 -19 0 -11 -4 -21 -8 -23 -10 -4 -49 -86 -58 -122 -3 -14 -10
-29 -15 -32 -5 -3 -9 -14 -9 -24 0 -10 -4 -20 -8 -22 -10 -4 -82 -150 -82
-166 0 -7 -4 -12 -10 -12 -5 0 -10 -9 -10 -20 0 -11 -4 -20 -10 -20 -5 0 -10
-6 -10 -13 0 -7 -16 -44 -35 -83 -19 -38 -35 -77 -35 -86 0 -10 -4 -18 -10
-18 -5 0 -10 -9 -10 -19 0 -11 -4 -21 -8 -23 -10 -4 -66 -120 -113 -235 -8
-18 -17 -33 -21 -33 -5 0 -8 -9 -8 -20 0 -11 -4 -20 -10 -20 -5 0 -10 -6 -10
-14 0 -8 -7 -27 -15 -43 -8 -15 -20 -43 -27 -60 -7 -18 -16 -33 -20 -33 -5 0
-8 -6 -8 -13 0 -7 -16 -44 -35 -83 -19 -38 -35 -76 -35 -86 0 -9 -4 -18 -8
-20 -8 -3 -74 -134 -92 -183 -21 -57 -35 -85 -42 -85 -5 0 -8 -9 -8 -20 0 -11
-4 -20 -10 -20 -5 0 -10 -5 -10 -12 0 -10 -39 -100 -63 -143 -6 -11 -26 -51
-45 -89 l-34 -68 -13 28 c-8 16 -21 47 -30 69 -16 36 -74 161 -128 275 -12 25
-25 47 -29 48 -5 2 -8 12 -8 23 0 10 -4 19 -10 19 -5 0 -10 11 -10 25 0 14 -4
25 -10 25 -5 0 -10 6 -10 13 0 8 -11 36 -25 63 -14 27 -25 55 -25 62 0 6 -4
12 -10 12 -5 0 -10 9 -10 20 0 11 -4 20 -10 20 -5 0 -10 6 -10 13 0 8 -6 27
-14 43 -84 176 -101 209 -108 212 -4 2 -8 10 -8 18 0 17 -52 128 -62 132 -4 2
-8 12 -8 23 0 10 -4 19 -10 19 -5 0 -10 6 -10 13 0 8 -15 45 -33 83 -19 38
-40 84 -48 102 -8 17 -17 32 -21 32 -5 0 -8 9 -8 20 0 11 -4 20 -10 20 -5 0
-10 8 -10 17 0 9 -27 73 -61 142 -33 69 -75 155 -92 191 -18 36 -35 67 -39 68
-5 2 -8 12 -8 23 0 10 -4 19 -10 19 -5 0 -10 8 -10 18 0 9 -16 48 -35 86 -19
39 -35 76 -35 83 0 7 -4 13 -10 13 -5 0 -10 9 -10 20 0 11 -4 20 -10 20 -5 0
-10 5 -10 12 0 6 -15 43 -34 82 -41 86 -98 209 -117 254 -8 17 -17 32 -21 32
-5 0 -8 9 -8 20 0 11 -3 20 -8 20 -4 0 -13 15 -21 33 -44 105 -102 226 -126
264 l-20 33 -437 0 c-280 0 -439 4 -443 10 -9 15 -68 11 -82 -5z m498 -35
l450 0 33 -72 c19 -40 57 -122 86 -183 29 -60 87 -184 130 -275 43 -91 106
-223 140 -295 34 -71 102 -213 150 -315 48 -102 136 -286 195 -410 107 -225
256 -538 323 -680 336 -715 329 -702 354 -643 6 15 83 179 169 363 150 321
185 394 314 665 31 66 83 176 115 245 32 69 122 260 200 425 78 165 201 424
273 575 71 151 161 343 199 425 38 83 74 155 81 162 9 9 130 13 475 15 254 2
462 0 462 -4 0 -3 -512 -1031 -1138 -2285 -626 -1253 -1144 -2293 -1151 -2310
-8 -18 -17 -33 -22 -33 -5 0 -373 728 -818 1618 -445 889 -964 1927 -1155
2306 -190 379 -346 696 -346 704 0 9 6 12 16 8 9 -3 218 -6 465 -6z"/>
<path d="M15945 14960 c-3 -5 -46 -10 -96 -10 -49 0 -89 -4 -89 -9 0 -4 -30
-11 -67 -15 -72 -7 -157 -27 -169 -39 -4 -4 -20 -7 -35 -7 -15 0 -31 -4 -34
-10 -3 -5 -15 -10 -26 -10 -10 0 -19 -4 -19 -10 0 -5 -11 -10 -24 -10 -14 0
-28 -4 -31 -10 -3 -5 -14 -10 -24 -10 -42 0 -298 -146 -351 -200 -8 -8 -33
-28 -55 -45 -46 -34 -135 -125 -135 -138 0 -6 -8 -17 -18 -26 -26 -24 -67 -81
-90 -126 -88 -172 -111 -223 -112 -242 0 -12 -4 -25 -10 -28 -5 -3 -10 -17
-10 -31 0 -13 -4 -24 -10 -24 -5 0 -10 -15 -10 -34 0 -19 -4 -38 -10 -41 -5
-3 -10 -25 -10 -49 0 -23 -5 -47 -10 -52 -7 -7 -9 -71 -7 -185 5 -181 13 -257
28 -273 5 -6 9 -25 9 -43 0 -18 5 -33 10 -33 6 0 10 -11 10 -25 0 -14 4 -25 9
-25 5 0 11 -13 14 -29 8 -37 43 -114 76 -166 47 -73 51 -80 60 -101 5 -12 21
-30 35 -42 14 -11 26 -25 26 -30 0 -24 162 -170 214 -193 14 -7 26 -16 26 -21
0 -4 5 -8 10 -8 6 0 20 -9 32 -20 12 -11 28 -20 35 -20 7 0 13 -4 13 -10 0 -5
9 -10 20 -10 11 0 20 -4 20 -10 0 -5 4 -10 10 -10 15 0 125 -53 128 -62 2 -4
10 -8 18 -8 8 0 22 -4 32 -9 55 -28 157 -61 189 -61 13 0 23 -4 23 -10 0 -5
15 -10 34 -10 19 0 38 -4 41 -10 3 -5 25 -10 49 -10 23 0 46 -4 51 -9 6 -5 28
-11 50 -14 22 -3 83 -14 135 -26 52 -11 107 -21 123 -21 15 0 27 -4 27 -10 0
-5 18 -10 40 -10 22 0 40 -4 40 -10 0 -5 11 -10 24 -10 14 0 28 -4 31 -10 3
-5 17 -10 30 -10 13 0 27 -4 30 -10 3 -5 14 -10 23 -10 9 0 30 -7 46 -15 15
-8 35 -15 42 -15 8 0 14 -4 14 -8 0 -5 16 -14 35 -22 19 -8 35 -17 35 -22 0
-4 6 -8 14 -8 17 0 109 -90 133 -130 9 -16 21 -30 25 -30 4 0 8 -9 8 -20 0
-11 4 -20 8 -20 15 0 37 -126 37 -215 0 -89 -22 -215 -37 -215 -4 0 -8 -7 -8
-15 0 -8 -8 -27 -17 -43 -27 -43 -115 -152 -123 -152 -4 0 -21 -13 -38 -30
-18 -16 -39 -30 -47 -30 -8 0 -15 -3 -15 -8 0 -4 -15 -13 -32 -21 -18 -7 -46
-20 -62 -27 -16 -8 -37 -14 -47 -14 -10 0 -21 -4 -24 -10 -3 -5 -21 -10 -40
-10 -19 0 -37 -4 -40 -10 -4 -6 -77 -10 -185 -10 -108 0 -181 4 -185 10 -3 6
-24 10 -46 10 -21 0 -47 4 -57 9 -9 5 -35 14 -57 21 -65 19 -125 44 -125 53 0
4 -9 7 -20 7 -11 0 -20 4 -20 8 0 5 -16 14 -35 22 -19 8 -35 17 -35 21 0 4 -9
10 -19 14 -11 3 -45 30 -76 60 -31 30 -66 55 -76 55 -21 0 -60 -22 -93 -52
-11 -10 -24 -18 -29 -18 -5 0 -24 -16 -43 -35 -18 -19 -38 -35 -42 -35 -5 0
-23 -13 -40 -30 -18 -16 -34 -30 -37 -30 -5 0 -45 -32 -71 -57 -7 -7 -15 -13
-18 -13 -4 0 -20 -13 -38 -30 -17 -16 -36 -30 -43 -30 -6 0 -26 -16 -45 -35
-19 -19 -39 -35 -45 -35 -6 0 -17 -9 -25 -20 -8 -11 -19 -20 -25 -20 -15 0
-55 -43 -55 -58 0 -20 178 -204 233 -241 13 -9 34 -26 47 -38 13 -13 28 -23
33 -23 5 0 17 -8 26 -17 9 -10 34 -27 56 -38 22 -11 42 -22 45 -25 3 -3 28
-16 55 -30 28 -14 52 -28 53 -32 2 -5 11 -8 20 -8 10 0 26 -7 36 -15 11 -8 32
-15 48 -15 15 0 28 -3 28 -7 0 -11 50 -33 72 -33 10 0 18 -4 18 -10 0 -5 9
-10 20 -10 11 0 28 -4 38 -9 26 -14 155 -41 194 -41 19 0 38 -4 44 -9 27 -27
562 -27 588 0 6 5 30 9 54 9 47 0 175 26 204 41 10 5 29 9 42 9 14 0 28 5 31
10 3 6 14 10 24 10 21 0 71 22 71 33 0 4 13 7 29 7 17 0 32 4 36 9 3 5 19 12
35 16 17 4 30 11 30 16 0 5 9 9 20 9 11 0 20 4 20 8 0 5 16 14 35 22 19 8 35
17 35 22 0 4 7 8 16 8 15 0 86 48 92 63 2 4 10 7 17 7 20 0 257 240 280 283
11 21 27 46 35 56 35 40 110 187 110 216 0 8 5 15 10 15 6 0 10 7 10 15 0 8 5
24 10 35 6 11 15 29 20 40 6 11 10 29 10 39 0 11 4 22 9 26 5 3 13 30 16 60 4
31 11 58 16 61 5 3 9 29 9 59 0 30 5 57 10 60 13 8 13 297 1 311 -5 5 -12 38
-14 74 -9 115 -26 188 -58 252 -5 10 -9 27 -9 38 0 11 -4 20 -10 20 -5 0 -10
9 -10 20 0 11 -4 20 -10 20 -5 0 -10 6 -10 13 0 18 -70 151 -81 155 -5 2 -9 8
-9 14 0 6 -8 18 -19 27 -10 9 -25 30 -34 46 -17 32 -169 185 -184 185 -5 0
-22 14 -38 30 -16 17 -35 30 -42 30 -7 0 -13 3 -13 8 0 4 -20 16 -45 27 -25
11 -45 23 -45 28 0 4 -9 7 -19 7 -11 0 -21 4 -23 8 -4 10 -100 56 -153 73 -22
7 -44 17 -50 21 -5 4 -19 8 -32 8 -13 0 -23 5 -23 10 0 6 -16 10 -35 10 -19 0
-35 5 -35 10 0 6 -9 10 -20 10 -11 0 -28 4 -38 9 -24 13 -135 32 -219 38 -40
3 -73 10 -73 14 0 5 -20 9 -44 9 -25 0 -48 5 -51 10 -3 6 -28 10 -56 10 -27 0
-49 5 -49 10 0 6 -17 10 -37 10 -20 0 -50 4 -67 9 -17 5 -67 17 -111 26 -44 9
-89 20 -100 24 -55 23 -122 58 -139 73 -11 10 -23 18 -26 18 -11 0 -44 33 -59
60 -44 75 -61 114 -61 135 0 13 -4 27 -10 30 -6 4 -10 57 -10 125 0 68 4 121
10 125 6 3 10 14 10 24 0 9 11 41 25 69 14 29 25 54 25 57 0 12 123 125 136
125 8 0 14 3 14 8 0 8 54 33 115 52 22 7 48 16 57 21 10 5 30 9 46 9 15 0 32
4 38 9 8 8 158 21 239 21 87 0 241 -13 249 -21 6 -5 25 -9 42 -9 18 0 36 -4
39 -10 3 -5 17 -10 30 -10 13 0 26 -4 29 -9 3 -4 20 -11 38 -15 42 -8 88 -29
88 -38 0 -5 9 -8 20 -8 11 0 20 -4 20 -10 0 -5 4 -10 10 -10 15 0 102 -69 125
-100 54 -73 90 -79 147 -25 20 19 39 35 43 35 3 0 17 11 31 25 14 14 29 25 33
25 4 0 22 13 39 29 17 16 49 42 71 57 23 15 41 30 41 35 0 4 9 10 19 14 11 3
33 18 49 33 16 15 46 39 66 52 20 14 36 28 36 33 0 4 5 7 11 7 6 0 23 12 37
28 15 15 39 35 54 45 43 27 52 53 31 81 -10 14 -28 30 -40 37 -13 7 -23 18
-23 24 0 12 -41 55 -53 55 -4 0 -32 25 -62 55 -31 30 -61 55 -68 55 -7 0 -19
9 -27 20 -8 11 -18 20 -23 20 -4 0 -17 8 -28 19 -11 10 -37 27 -57 37 -20 11
-43 25 -50 31 -7 7 -30 20 -50 30 -20 9 -39 20 -42 23 -3 3 -25 14 -50 24 -55
23 -129 55 -152 67 -10 5 -27 9 -37 9 -11 0 -23 5 -26 10 -3 6 -16 10 -28 10
-12 0 -40 7 -62 15 -22 8 -59 14 -82 15 -24 0 -43 5 -43 10 0 6 -31 10 -74 10
-41 0 -78 5 -81 10 -4 6 -78 10 -190 10 -112 0 -186 -4 -190 -10z m577 -59
c249 -55 467 -154 678 -310 80 -59 272 -240 268 -252 -2 -4 -34 -31 -73 -61
-38 -30 -171 -133 -294 -229 -123 -95 -228 -178 -235 -182 -7 -5 -39 19 -87
66 -130 128 -323 204 -576 226 -306 26 -581 -43 -725 -181 -93 -90 -138 -203
-138 -348 0 -167 34 -266 123 -354 112 -113 239 -152 794 -246 320 -54 534
-131 738 -265 195 -128 348 -323 439 -561 75 -196 105 -484 72 -689 -29 -176
-110 -391 -211 -556 -201 -330 -585 -565 -1036 -633 -634 -96 -1161 56 -1571
452 -59 58 -108 110 -108 117 0 6 10 16 23 22 12 6 128 93 257 193 129 101
259 201 288 223 l52 40 63 -59 c76 -73 141 -115 247 -160 159 -67 223 -78 440
-79 177 0 202 2 270 23 136 43 235 104 327 203 57 61 76 92 108 172 60 154 57
318 -8 461 -56 122 -199 233 -388 300 -85 31 -428 114 -539 131 -83 13 -237
55 -327 89 -460 175 -732 455 -840 863 -23 87 -26 118 -27 278 0 154 3 194 22
273 58 242 184 475 339 628 221 218 555 370 920 418 169 23 587 15 715 -13z"/>
<path d="M22250 14960 c-8 -5 -69 -10 -135 -10 l-120 0 -12 -27 c-10 -21 -13
-236 -13 -969 0 -765 -2 -944 -13 -952 -13 -11 -567 -23 -1032 -22 -121 1
-384 0 -585 -1 -747 -3 -897 -2 -988 6 -143 12 -132 46 -132 -402 0 -242 4
-373 10 -373 6 0 10 -9 10 -20 0 -13 7 -20 18 -20 10 0 23 -5 28 -10 7 -7 149
-9 435 -5 233 3 834 7 1334 8 l910 2 5 -920 c3 -506 9 -930 14 -942 8 -21 15
-23 90 -23 44 -1 203 -3 351 -6 303 -5 365 -1 365 25 0 9 5 22 10 27 7 7 7 85
-1 245 -9 203 -6 2754 6 4049 2 280 0 307 -31 337 -16 16 -500 18 -524 3z
m518 -2342 l-3 -2313 -382 -3 -383 -2 0 945 0 945 -1369 0 -1368 0 -7 46 c-3
26 -6 196 -6 379 l0 333 678 -6 c1130 -10 2030 2 2055 27 8 8 13 276 17 979
l5 967 55 6 c30 3 202 6 383 7 l327 2 -2 -2312z"/>
<path d="M24693 14955 c-10 -11 -13 -492 -13 -2332 l0 -2318 22 -14 c16 -10
23 -10 26 -2 2 6 9 11 15 11 7 0 25 11 41 25 16 14 32 25 36 25 3 0 23 16 44
35 21 19 42 35 46 35 4 0 21 14 38 30 18 17 36 30 41 30 5 0 24 16 42 35 19
19 38 35 44 35 6 0 24 14 40 30 16 17 33 30 37 30 5 0 24 16 44 35 19 19 39
35 45 35 6 0 24 14 39 30 15 17 33 30 38 30 6 0 27 16 48 35 20 19 40 35 44
35 4 0 26 18 49 40 l41 40 0 2026 c0 1742 -2 2027 -14 2040 -21 21 -775 20
-793 -1z m777 -2042 l0 -2018 -97 -75 c-53 -41 -161 -126 -240 -188 -225 -177
-414 -322 -422 -322 -3 0 -6 1039 -6 2310 l0 2310 383 0 382 0 0 -2017z"/>
<path d="M33917 14955 c-9 -7 -17 -17 -17 -24 0 -6 -4 -11 -10 -11 -5 0 -10
-9 -10 -19 0 -11 -3 -21 -7 -23 -5 -1 -46 -79 -92 -173 -46 -93 -88 -179 -94
-190 -44 -82 -77 -152 -77 -162 0 -7 -4 -13 -10 -13 -5 0 -10 -11 -10 -25 0
-14 -3 -25 -7 -25 -5 0 -19 -25 -33 -55 -14 -30 -28 -55 -32 -55 -3 0 -9 -13
-13 -30 -4 -16 -11 -32 -16 -35 -5 -4 -9 -15 -9 -26 0 -10 -4 -19 -10 -19 -5
0 -10 -7 -10 -15 0 -8 -4 -15 -10 -15 -5 0 -10 -9 -10 -20 0 -11 -4 -20 -10
-20 -5 0 -10 -9 -10 -19 0 -11 -4 -22 -9 -26 -5 -3 -12 -19 -16 -35 -4 -17
-11 -30 -16 -30 -5 0 -9 -9 -9 -19 0 -11 -4 -21 -8 -23 -10 -4 -82 -150 -82
-166 0 -7 -4 -12 -10 -12 -5 0 -10 -9 -10 -19 0 -11 -4 -21 -8 -23 -10 -4 -82
-150 -82 -166 0 -7 -4 -12 -10 -12 -5 0 -10 -9 -10 -19 0 -11 -4 -21 -8 -23
-10 -4 -82 -150 -82 -166 0 -7 -4 -12 -10 -12 -5 0 -10 -9 -10 -20 0 -11 -4
-20 -10 -20 -5 0 -10 -9 -10 -19 0 -11 -4 -21 -8 -23 -10 -4 -62 -111 -62
-126 0 -7 -4 -12 -10 -12 -5 0 -10 -9 -10 -20 0 -11 -4 -20 -10 -20 -5 0 -10
-9 -10 -19 0 -11 -4 -21 -8 -23 -10 -4 -62 -111 -62 -126 0 -7 -4 -12 -10 -12
-5 0 -10 -9 -10 -20 0 -11 -4 -20 -10 -20 -5 0 -10 -9 -10 -19 0 -11 -4 -21
-8 -23 -10 -4 -62 -111 -62 -126 0 -7 -4 -12 -10 -12 -5 0 -10 -9 -10 -20 0
-11 -4 -20 -10 -20 -5 0 -10 -9 -10 -19 0 -11 -4 -21 -8 -23 -10 -4 -62 -111
-62 -126 0 -7 -4 -12 -10 -12 -5 0 -10 -9 -10 -20 0 -11 -4 -20 -10 -20 -5 0
-10 -9 -10 -19 0 -11 -4 -21 -8 -23 -10 -4 -62 -111 -62 -126 0 -7 -4 -12 -10
-12 -5 0 -10 -9 -10 -20 0 -11 -4 -20 -10 -20 -5 0 -10 -9 -10 -19 0 -11 -4
-21 -8 -23 -10 -4 -62 -111 -62 -126 0 -7 -4 -12 -10 -12 -5 0 -10 -9 -10 -20
0 -11 -4 -20 -10 -20 -5 0 -10 -9 -10 -19 0 -11 -4 -21 -8 -23 -10 -4 -62
-111 -62 -126 0 -7 -4 -12 -10 -12 -5 0 -10 -9 -10 -20 0 -11 -4 -20 -10 -20
-5 0 -10 -9 -10 -19 0 -11 -4 -21 -8 -23 -10 -4 -62 -111 -62 -126 0 -7 -4
-12 -10 -12 -5 0 -10 -9 -10 -20 0 -11 -4 -20 -10 -20 -5 0 -10 -9 -10 -19 0
-11 -4 -21 -8 -23 -9 -3 -62 -113 -62 -128 0 -6 -4 -10 -10 -10 -5 0 -10 -9
-10 -20 0 -11 -4 -20 -10 -20 -5 0 -10 -9 -10 -19 0 -11 -4 -21 -8 -23 -9 -3
-62 -113 -62 -128 0 -6 -4 -10 -10 -10 -5 0 -10 -9 -10 -20 0 -11 -4 -20 -10
-20 -5 0 -10 -9 -10 -19 0 -11 -4 -21 -8 -23 -9 -3 -62 -113 -62 -128 0 -6 -4
-10 -10 -10 -5 0 -10 -9 -10 -20 0 -11 -4 -20 -10 -20 -5 0 -10 -9 -10 -19 0
-11 -4 -21 -8 -23 -9 -3 -62 -113 -62 -128 0 -6 -4 -10 -10 -10 -5 0 -10 -9
-10 -20 0 -11 -4 -20 -10 -20 -5 0 -10 -9 -10 -20 0 -11 -3 -20 -8 -20 -4 0
-13 -15 -21 -32 -35 -80 -64 -139 -72 -144 -5 -3 -9 -15 -9 -28 0 -42 43 -46
508 -46 276 0 433 4 437 10 3 6 14 10 25 10 12 0 24 15 37 45 10 25 21 45 26
45 4 0 7 9 7 20 0 11 5 20 10 20 6 0 10 7 10 15 0 8 9 30 20 50 11 20 20 42
20 50 0 8 4 15 10 15 5 0 12 16 16 35 3 19 10 35 15 35 5 0 9 9 9 19 0 11 4
21 8 23 4 2 19 28 34 58 14 30 44 93 67 140 23 47 41 91 41 97 0 6 3 13 8 15
10 4 42 75 42 93 0 8 5 15 10 15 6 0 10 9 10 19 0 11 4 21 8 23 13 5 82 156
82 178 0 11 5 20 10 20 6 0 10 7 10 15 0 8 5 15 10 15 6 0 10 9 10 20 0 11 5
20 10 20 6 0 10 6 10 14 0 8 11 34 25 57 14 24 25 52 25 62 0 9 5 17 10 17 6
0 10 9 10 19 0 11 5 23 10 26 6 3 10 15 10 26 0 10 3 19 8 19 4 0 13 15 21 33
8 17 45 96 83 174 37 78 68 149 68 158 0 8 5 15 10 15 6 0 10 9 10 20 0 11 5
20 10 20 6 0 10 9 10 19 0 11 4 21 8 23 11 4 62 115 62 133 0 8 5 15 10 15 6
0 10 11 10 24 0 13 4 26 8 28 9 4 82 153 82 168 0 5 5 10 10 10 6 0 10 9 10
20 0 11 5 20 10 20 6 0 10 6 10 13 0 11 18 52 57 129 7 14 13 33 13 42 0 9 5
16 10 16 6 0 10 9 10 19 0 11 4 21 8 23 12 5 71 133 78 168 4 16 10 30 13 30
4 0 13 16 21 35 8 19 17 35 22 35 4 0 8 8 8 18 0 10 4 22 9 28 4 5 17 31 27
58 17 46 18 48 27 25 18 -47 51 -114 69 -141 10 -14 18 -33 18 -42 0 -9 4 -16
10 -16 5 0 13 -12 16 -27 4 -16 15 -40 25 -55 11 -14 19 -30 19 -35 0 -15 25
-63 33 -63 4 0 7 -6 7 -13 0 -8 6 -27 14 -43 7 -16 20 -44 27 -61 8 -18 17
-33 21 -33 5 0 8 -9 8 -20 0 -11 3 -20 8 -20 4 0 13 -15 21 -32 7 -18 20 -49
27 -68 8 -19 19 -43 24 -52 6 -10 10 -25 10 -33 0 -8 4 -15 8 -15 5 0 14 -16
22 -35 8 -19 17 -35 22 -35 4 0 8 -7 8 -14 0 -8 15 -48 33 -88 18 -40 40 -88
48 -105 7 -18 17 -33 21 -33 5 0 8 -9 8 -19 0 -11 4 -22 9 -26 5 -3 12 -19 16
-35 4 -17 11 -30 16 -30 5 0 9 -9 9 -19 0 -11 3 -21 8 -23 9 -4 46 -81 113
-235 8 -18 17 -33 21 -33 5 0 8 -9 8 -20 0 -11 5 -20 10 -20 6 0 10 -7 10 -16
0 -9 6 -28 14 -42 39 -76 56 -115 56 -128 0 -8 5 -14 10 -14 6 0 10 -9 10 -20
0 -11 5 -20 10 -20 6 0 10 -5 10 -10 0 -15 73 -164 82 -168 4 -2 8 -12 8 -23
0 -10 5 -19 10 -19 6 0 10 -7 10 -15 0 -9 16 -48 35 -88 19 -39 35 -78 35 -84
0 -7 5 -13 10 -13 6 0 10 -9 10 -20 0 -11 5 -20 10 -20 6 0 10 -4 10 -9 0 -5
14 -40 31 -78 57 -124 100 -217 125 -267 13 -28 24 -56 24 -63 0 -7 5 -13 10
-13 6 0 10 -9 10 -20 0 -11 5 -20 10 -20 6 0 10 -7 10 -15 0 -40 66 -135 93
-135 9 0 19 -4 22 -10 4 -6 164 -10 448 -10 468 1 477 2 477 47 0 11 -20 60
-45 109 -25 48 -45 94 -45 101 0 7 -3 13 -7 13 -5 0 -19 25 -33 55 -14 30 -28
55 -32 55 -5 0 -8 8 -8 18 0 10 -7 27 -15 38 -8 10 -15 27 -15 37 0 9 -4 17
-10 17 -5 0 -10 9 -10 20 0 11 -4 20 -8 20 -5 0 -14 16 -22 35 -8 19 -17 35
-22 35 -4 0 -8 7 -8 16 0 8 -11 35 -25 60 -14 25 -25 51 -25 59 0 8 -4 15 -8
15 -5 0 -14 16 -22 35 -8 19 -17 35 -22 35 -4 0 -8 7 -8 15 0 14 -30 85 -40
95 -3 3 -16 28 -30 55 -14 28 -28 51 -32 53 -5 2 -8 11 -8 21 0 9 -7 26 -15
37 -8 10 -15 27 -15 37 0 9 -3 17 -7 17 -5 0 -19 25 -33 55 -14 30 -28 55 -32
55 -5 0 -8 7 -8 15 0 14 -30 85 -40 95 -3 3 -16 28 -30 55 -14 28 -28 51 -32
53 -5 2 -8 10 -8 18 0 9 -11 35 -25 60 -14 25 -25 51 -25 59 0 8 -4 15 -8 15
-5 0 -14 16 -22 35 -8 19 -17 35 -22 35 -4 0 -8 7 -8 15 0 14 -30 85 -40 95
-3 3 -16 28 -30 55 -14 28 -28 52 -32 53 -5 2 -8 11 -8 21 0 9 -7 26 -15 37
-8 10 -15 27 -15 37 0 9 -3 17 -7 17 -5 0 -19 25 -33 55 -14 30 -28 55 -32 55
-5 0 -8 8 -8 18 0 10 -7 27 -15 38 -8 10 -15 27 -15 37 0 9 -3 17 -7 17 -5 0
-19 25 -33 55 -14 30 -28 55 -32 55 -5 0 -8 6 -8 14 0 7 -31 75 -70 152 -38
76 -70 144 -70 150 0 7 -3 14 -8 16 -9 4 -102 190 -102 205 0 6 -3 13 -8 15
-4 2 -39 66 -77 143 -38 77 -73 142 -77 143 -5 2 -8 9 -8 16 0 7 -36 84 -80
172 -44 87 -80 164 -80 170 0 7 -3 14 -8 16 -9 4 -102 190 -102 205 0 6 -3 13
-8 15 -4 2 -39 66 -77 143 -38 77 -73 142 -77 143 -5 2 -8 10 -8 17 0 16 -92
199 -102 203 -5 2 -8 10 -8 17 0 11 -27 68 -77 160 -25 46 -83 171 -84 180 0
6 -12 20 -27 31 -23 18 -31 20 -45 9z m1171 -2331 c633 -1265 1152 -2306 1154
-2313 5 -18 -910 -17 -928 1 -7 7 -46 85 -87 173 -41 88 -143 304 -227 480
-84 176 -209 442 -280 590 -206 436 -684 1443 -727 1532 -22 44 -43 92 -46
104 -6 21 -8 22 -21 9 -8 -8 -93 -181 -189 -385 -96 -203 -201 -424 -232 -490
-31 -66 -128 -271 -215 -455 -87 -184 -184 -389 -215 -455 -32 -66 -83 -176
-115 -245 -32 -69 -94 -199 -137 -290 -44 -91 -122 -255 -173 -365 -52 -110
-96 -203 -100 -207 -5 -6 -940 -17 -940 -12 0 13 2315 4634 2320 4632 4 -2
525 -1038 1158 -2304z"/>
<path d="M2084 14407 c-20 -23 -27 -78 -31 -244 -4 -156 -3 -163 18 -187 l23
-26 4172 0 4173 0 21 22 c19 20 20 34 20 210 0 157 -3 193 -16 213 l-16 25
-4177 0 c-3359 -1 -4178 -3 -4187 -13z m8361 -222 l0 -200 -4172 -3 -4173 -2
0 202 0 203 4173 0 4172 -1 0 -199z"/>
<path d="M1621 13582 c-249 -1 -369 -6 -378 -13 -11 -10 -13 -540 -13 -3136 0
-2135 3 -3130 10 -3144 11 -19 78 -19 5021 -19 4329 0 5012 2 5025 14 12 13
14 446 14 3151 0 2773 -2 3136 -15 3141 -15 6 -8948 12 -9664 6z m9657 -3157
l2 -3126 -5004 3 -5004 3 -5 50 c-5 67 -9 6190 -3 6196 2 2 2256 3 5008 2
l5003 -2 3 -3126z"/>
<path d="M1686 13143 c-3 -4 -6 -1227 -6 -2719 l0 -2712 33 -3 c17 -2 2084 -3
4593 -1 l4561 2 -1 2718 -1 2717 -4586 2 c-2523 1 -4589 -1 -4593 -4z m5644
-35 c729 0 1814 3 2413 7 l1087 8 0 -2697 0 -2696 -4565 0 -4565 0 0 2696 0
2696 2153 -6 c1183 -4 2748 -7 3477 -8z"/>
<path d="M4993 11762 c-79 -81 -153 -160 -165 -176 -13 -16 -77 -84 -144 -151
-66 -67 -138 -144 -160 -170 -21 -27 -106 -117 -189 -200 -82 -83 -171 -176
-196 -205 -26 -30 -91 -100 -145 -156 -129 -131 -223 -233 -241 -261 -14 -21
-11 -27 59 -104 40 -45 135 -145 211 -222 76 -78 150 -157 165 -177 15 -19 92
-101 173 -182 80 -81 163 -169 185 -195 21 -26 122 -132 224 -234 102 -103
208 -213 235 -245 97 -112 111 -124 148 -124 30 0 46 10 104 68 38 37 82 85
98 107 17 22 45 54 63 72 45 44 36 70 -52 159 -39 39 -83 86 -97 105 -15 19
-93 102 -175 185 -82 83 -161 166 -175 185 -15 19 -89 97 -165 175 -77 77
-160 165 -186 195 -26 30 -78 87 -117 128 -39 40 -71 79 -71 87 0 7 41 55 91
106 50 50 110 115 134 143 24 27 109 117 189 199 80 82 146 152 146 156 0 4
60 68 133 141 72 74 170 177 217 228 47 52 104 113 128 137 40 40 54 74 32 74
-5 0 -10 5 -10 12 0 7 -19 32 -42 56 -157 161 -232 232 -247 231 -9 0 -80 -67
-158 -147z m302 -18 c72 -75 132 -141 134 -146 1 -5 -23 -37 -55 -71 -33 -34
-134 -141 -225 -237 -91 -96 -232 -247 -314 -335 -82 -88 -225 -240 -319 -338
-94 -98 -172 -182 -174 -186 -3 -9 -48 39 781 -840 164 -174 301 -322 304
-329 5 -11 -50 -71 -232 -255 l-39 -40 -55 59 c-30 33 -190 201 -355 374 -165
173 -336 353 -380 400 -45 47 -196 206 -336 354 -140 147 -254 270 -253 273 2
7 520 556 743 788 64 66 203 212 310 325 301 319 322 340 329 340 4 0 65 -61
136 -136z"/>
<path d="M7350 11897 c0 -7 -9 -18 -20 -25 -11 -7 -20 -16 -20 -21 0 -5 -49
-58 -110 -118 -94 -94 -110 -114 -110 -141 0 -18 4 -32 9 -32 12 0 28 -16 66
-65 17 -21 89 -100 162 -174 72 -75 147 -154 165 -176 18 -21 86 -93 150 -160
64 -66 129 -136 145 -156 15 -19 93 -101 173 -182 80 -80 159 -163 177 -183
l31 -38 -48 -50 c-26 -28 -63 -69 -81 -90 -19 -22 -74 -81 -124 -131 -49 -50
-106 -110 -125 -134 -19 -23 -89 -97 -155 -165 -66 -67 -157 -162 -202 -212
-45 -50 -132 -140 -192 -201 -61 -61 -111 -115 -111 -121 0 -6 -9 -16 -20 -22
-13 -7 -20 -21 -20 -42 0 -26 20 -50 140 -169 77 -77 143 -139 146 -139 24 0
79 40 125 91 30 33 119 127 197 207 79 81 156 162 170 181 15 19 89 97 166
175 76 78 150 156 165 175 14 19 87 96 161 171 74 75 173 178 220 230 47 51
113 122 148 156 44 44 62 69 62 87 0 18 -18 45 -62 90 -35 35 -93 97 -129 138
-37 41 -136 144 -220 230 -85 85 -166 171 -181 190 -14 18 -91 100 -170 181
-78 80 -195 201 -258 269 -63 67 -140 147 -170 178 -30 32 -83 87 -116 124
-34 37 -67 67 -73 67 -6 0 -11 5 -11 10 0 6 -11 10 -25 10 -14 0 -25 -6 -25
-13z m181 -159 c74 -79 231 -244 348 -368 118 -124 249 -261 290 -305 42 -44
191 -201 331 -348 140 -147 258 -274 263 -283 6 -11 -33 -58 -160 -192 -92
-97 -256 -269 -363 -382 -107 -113 -276 -291 -376 -395 -99 -105 -245 -259
-324 -343 -79 -84 -146 -151 -150 -150 -3 2 -69 67 -145 146 l-139 143 115
117 c64 64 192 198 285 297 93 99 237 252 320 340 312 330 374 400 372 417 -2
9 -86 103 -187 210 -102 106 -225 236 -275 288 -50 52 -154 163 -231 245 -77
83 -180 193 -230 245 -49 52 -107 113 -127 135 l-38 40 116 120 c64 66 123
130 131 143 8 12 21 22 28 22 6 0 72 -64 146 -142z"/>
<path d="M18219 8986 c-2 -2 -69 -6 -148 -9 -100 -4 -146 -10 -152 -18 -8 -13
-1 -70 10 -79 3 -3 8 -16 9 -30 6 -38 32 -62 62 -57 13 3 36 -1 50 -8 17 -8
101 -15 250 -19 124 -4 227 -12 228 -17 2 -5 15 -9 28 -9 13 0 32 -4 42 -9 9
-5 48 -24 85 -43 81 -39 207 -163 207 -203 0 -13 4 -26 9 -29 19 -12 38 -213
22 -229 -6 -6 -11 -30 -11 -53 0 -24 -4 -46 -10 -49 -5 -3 -10 -14 -10 -24 0
-20 -49 -114 -62 -119 -4 -2 -8 -8 -8 -13 0 -13 -67 -79 -80 -79 -5 0 -10 -4
-10 -9 0 -5 -20 -17 -45 -28 -25 -10 -45 -21 -45 -25 0 -5 -11 -8 -24 -8 -14
0 -28 -4 -31 -10 -3 -5 -26 -10 -50 -10 -24 0 -47 -4 -50 -10 -4 -6 -56 -10
-124 -10 -104 0 -120 -2 -139 -20 -25 -24 -27 -45 -7 -80 8 -14 14 -35 15 -47
0 -23 26 -39 107 -63 54 -17 284 -1 307 21 6 5 20 9 32 9 13 0 26 5 29 10 3 6
17 10 31 10 13 0 24 3 24 8 0 4 17 15 38 25 20 10 46 23 57 30 30 18 185 173
185 185 0 6 6 17 13 24 25 25 69 130 88 206 21 85 27 326 9 337 -5 3 -10 21
-10 40 0 19 -4 36 -9 39 -5 3 -12 18 -16 33 -3 15 -15 39 -26 54 -10 15 -19
32 -19 38 0 11 -15 31 -63 85 -16 17 -38 43 -50 58 -12 15 -26 28 -30 28 -5 0
-23 11 -41 25 -18 14 -38 25 -44 25 -6 0 -12 3 -14 8 -4 10 -84 46 -143 65
-70 22 -114 30 -155 28 -19 -1 -78 3 -130 9 -168 19 -177 19 -181 16z m197
-35 c164 -13 272 -38 369 -85 145 -72 249 -186 309 -338 25 -63 30 -91 34
-199 5 -137 -8 -221 -52 -329 -51 -126 -167 -256 -284 -318 -132 -70 -363
-103 -477 -67 -61 19 -84 38 -39 34 51 -6 59 11 17 33 -43 22 -67 48 -56 59 5
5 74 13 154 18 172 13 251 34 338 92 155 103 227 263 219 481 -4 95 -8 113
-37 172 -98 199 -317 296 -671 296 -119 0 -168 9 -176 32 -6 20 -27 21 -79 2
-15 -5 -11 3 14 29 26 27 31 37 18 37 -9 0 -21 -9 -27 -20 -15 -28 -22 -25
-43 16 -12 24 -14 40 -8 48 13 16 302 20 477 7z"/>
<path d="M22602 8978 c-21 -28 -25 -114 -29 -693 -4 -619 -2 -664 36 -691 22
-17 867 -20 902 -4 45 20 65 143 31 187 -17 23 -18 23 -372 25 l-355 3 -3 193
-2 192 315 0 c268 0 319 2 331 15 21 20 17 162 -4 188 -14 15 -42 17 -313 17
-163 0 -304 3 -313 6 -14 5 -16 30 -16 175 l0 169 348 0 c263 0 352 3 364 13
15 12 21 32 34 125 6 38 4 45 -22 67 l-29 25 -446 0 c-345 0 -449 -3 -457 -12z
m918 -97 c0 -54 -4 -80 -13 -84 -6 -2 -173 -3 -370 -2 l-357 3 0 -204 0 -204
283 -2 c155 -1 301 -1 324 0 23 2 44 -2 48 -8 4 -6 3 -44 0 -85 l-7 -75 -324
0 -324 0 0 -220 0 -220 370 0 370 0 0 -80 0 -80 -454 0 -453 0 -7 31 c-8 42
-8 1294 1 1302 3 4 210 7 460 7 l453 0 0 -79z"/>
<path d="M26746 8971 c-15 -16 -15 -24 -4 -60 7 -22 16 -41 20 -41 5 0 8 -9 8
-20 0 -11 5 -20 10 -20 6 0 10 -9 10 -19 0 -11 5 -23 10 -26 6 -3 10 -15 10
-26 0 -10 5 -19 10 -19 6 0 10 -8 10 -18 0 -10 7 -27 15 -38 8 -10 15 -26 15
-36 0 -9 4 -18 8 -20 9 -3 82 -152 82 -166 0 -13 64 -136 73 -140 4 -2 7 -12
7 -22 0 -10 4 -21 9 -25 5 -3 12 -19 16 -35 4 -17 11 -30 16 -30 5 0 9 -9 9
-19 0 -11 5 -23 10 -26 6 -3 10 -15 10 -26 0 -10 5 -19 10 -19 6 0 10 -9 10
-20 0 -11 5 -20 10 -20 6 0 10 -6 10 -14 0 -7 11 -34 25 -60 14 -26 25 -54 25
-62 0 -7 5 -14 10 -14 6 0 10 -9 10 -20 0 -11 3 -20 8 -20 4 0 13 -15 20 -32
25 -61 30 -73 58 -133 16 -33 32 -61 36 -63 4 -2 8 -10 8 -18 0 -30 47 -64 88
-64 35 0 42 5 66 40 14 22 26 44 26 50 0 5 3 10 8 10 4 0 13 15 21 33 19 43
86 187 122 263 16 34 29 67 29 73 0 6 5 11 10 11 6 0 10 9 10 20 0 11 5 20 10
20 6 0 10 7 10 15 0 8 4 23 10 33 20 37 60 130 60 140 0 7 5 12 10 12 6 0 10
9 10 20 0 11 5 20 11 20 6 0 9 6 6 14 -3 8 1 17 10 20 8 4 13 13 9 21 -3 8 -2
15 2 15 4 0 19 29 32 65 13 36 28 65 32 65 4 0 8 9 8 20 0 11 5 20 11 20 6 0
9 7 5 15 -3 8 -1 15 5 15 8 0 28 35 34 60 1 6 28 66 63 140 15 30 27 57 28 60
13 41 18 50 25 50 5 0 9 10 9 21 0 38 -28 48 -130 48 -104 0 -123 -8 -148 -64
-8 -16 -20 -43 -28 -58 -8 -16 -14 -35 -14 -43 0 -8 -4 -14 -10 -14 -5 0 -10
-9 -10 -20 0 -11 -4 -20 -10 -20 -5 0 -10 -9 -10 -20 0 -11 -4 -20 -10 -20 -5
0 -10 -8 -10 -18 0 -10 -9 -38 -21 -63 -20 -42 -40 -86 -93 -201 -13 -29 -30
-71 -37 -93 -8 -22 -16 -42 -19 -45 -10 -9 -70 -141 -70 -154 0 -6 -7 -21 -15
-32 -8 -10 -15 -27 -15 -36 0 -10 -4 -18 -8 -18 -5 0 -14 -16 -22 -35 -17 -44
-44 -47 -47 -5 -1 17 -9 38 -18 46 -8 9 -13 19 -10 23 2 5 -7 31 -20 60 -14
28 -25 57 -25 65 0 7 -6 19 -14 26 -8 6 -12 18 -9 26 3 8 0 14 -6 14 -6 0 -11
9 -11 20 0 11 -4 20 -10 20 -5 0 -10 9 -10 20 0 12 -8 33 -17 47 -10 15 -18
31 -18 37 -1 17 -25 72 -101 230 -13 28 -24 58 -24 68 0 10 -7 18 -15 18 -9 0
-12 6 -9 15 6 16 -16 75 -28 75 -5 0 -8 9 -8 20 0 11 -4 20 -10 20 -5 0 -10 9
-10 20 0 11 -7 20 -15 20 -8 0 -12 6 -10 13 14 36 -37 57 -143 57 -74 0 -92
-3 -106 -19z m224 -38 c39 -84 291 -658 372 -847 36 -83 69 -151 75 -153 6 -2
15 6 18 19 6 18 112 259 155 353 11 24 210 471 256 575 l33 75 105 3 c58 1
106 1 106 -1 0 -2 -60 -132 -134 -288 -73 -156 -145 -309 -158 -339 -22 -47
-131 -281 -283 -605 -48 -102 -62 -118 -102 -113 -26 3 -36 18 -115 178 -48
96 -112 229 -142 295 -30 66 -77 167 -104 225 -149 312 -292 625 -292 636 0
11 22 14 98 14 98 0 99 0 112 -27z"/>
<path d="M14592 7845 c-32 -17 -62 -51 -62 -70 0 -8 -4 -15 -10 -15 -5 0 -10
-16 -10 -35 0 -19 5 -35 10 -35 6 0 10 -9 10 -20 0 -27 43 -70 70 -70 11 0 20
-4 20 -10 0 -5 16 -10 35 -10 19 0 35 5 35 10 0 6 7 10 16 10 8 0 21 6 28 13
7 6 25 21 39 32 24 17 27 27 27 77 0 32 -4 58 -9 58 -5 0 -13 9 -16 21 -16 50
-125 76 -183 44z m121 -16 c29 -13 67 -76 67 -111 0 -30 -15 -50 -59 -83 -52
-37 -104 -34 -146 8 -44 44 -51 76 -30 122 29 60 110 91 168 64z"/>
<path d="M14595 7764 c-30 -32 -31 -53 -6 -86 42 -52 125 -2 119 71 -3 35 -5
36 -45 39 -36 3 -47 -1 -68 -24z"/>
</g>
</svg>
